<?xml version="1.0" standalone="no"?>
<!DOCTYPE svg PUBLIC "-//W3C//DTD SVG 20010904//EN"
 "http://www.w3.org/TR/2001/REC-SVG-20010904/DTD/svg10.dtd">
<svg version="1.0" xmlns="http://www.w3.org/2000/svg"
 width="512.000000pt" height="512.000000pt" viewBox="0 0 512.000000 512.000000"
 preserveAspectRatio="xMidYMid meet">

<g transform="translate(0.000000,512.000000) scale(0.100000,-0.100000)"
fill="#000000" stroke="none">
<path d="M2460 5107 c-164 -47 -291 -188 -307 -341 -5 -50 -3 -60 17 -81 15
-15 35 -25 52 -25 37 0 78 40 78 77 0 46 44 126 91 166 43 37 118 67 169 67
98 0 210 -79 246 -174 17 -45 17 -63 6 -247 -15 -261 -35 -313 -147 -365 -91
-43 -219 -22 -282 47 -29 32 -63 107 -63 141 0 37 -39 81 -73 81 -15 0 -39 -8
-53 -18 -24 -16 -26 -21 -22 -78 5 -74 41 -158 92 -214 27 -31 36 -49 36 -76
0 -48 -15 -57 -171 -96 l-126 -32 -54 33 c-34 21 -92 42 -154 57 -55 13 -106
28 -112 33 -19 15 -16 51 7 70 35 31 69 92 86 158 12 48 17 113 18 250 l1 185
-29 58 c-35 68 -93 124 -168 164 -47 25 -63 28 -148 28 -88 0 -101 -3 -162
-33 -77 -38 -130 -92 -165 -169 -33 -71 -38 -142 -24 -332 12 -170 29 -224 90
-293 33 -37 40 -69 19 -85 -7 -6 -38 -16 -68 -23 -130 -30 -182 -51 -228 -93
-50 -47 -92 -125 -92 -174 0 -30 -3 -33 -30 -33 -104 0 -237 -57 -318 -138
-78 -77 -113 -150 -157 -324 -33 -128 -42 -152 -76 -193 -94 -113 -166 -256
-210 -417 l-24 -83 -3 -1040 c-2 -750 0 -1059 9 -1108 60 -361 501 -554 810
-356 103 66 141 121 454 664 165 285 307 527 316 539 17 21 17 21 76 -35 71
-67 109 -91 190 -118 83 -28 207 -28 295 -1 115 35 232 128 276 218 l16 32
116 0 116 0 16 -32 c44 -90 161 -183 276 -218 88 -27 212 -27 295 1 81 27 119
51 190 118 59 56 59 56 76 35 9 -12 151 -255 316 -540 275 -477 305 -525 370
-590 137 -137 307 -183 499 -134 100 25 165 61 243 134 77 71 135 180 152 283
9 49 11 358 9 1108 l-3 1040 -24 85 c-44 157 -123 310 -225 435 -16 20 -36 75
-60 170 -45 174 -81 250 -156 325 -82 82 -215 140 -320 140 -27 0 -30 3 -30
33 0 49 -42 127 -92 174 -46 42 -98 63 -228 93 -30 7 -61 17 -67 23 -22 16
-15 48 18 85 61 69 78 123 90 293 14 190 9 261 -24 332 -35 77 -88 131 -165
169 -61 30 -74 33 -162 33 -85 0 -101 -3 -148 -28 -75 -40 -133 -96 -168 -164
l-29 -58 1 -185 c1 -136 6 -202 18 -250 17 -66 51 -127 86 -158 23 -19 26 -55
8 -70 -7 -5 -58 -20 -113 -33 -62 -15 -120 -36 -154 -57 l-54 -33 -126 32
c-156 39 -171 48 -171 96 0 27 9 45 36 76 46 50 82 129 94 203 5 31 12 138 16
238 6 152 4 190 -9 237 -35 119 -134 227 -250 271 -65 25 -187 32 -247 15z
m-919 -305 c43 -23 59 -38 82 -82 l29 -55 -7 -145 c-4 -80 -11 -165 -16 -190
-29 -130 -177 -190 -288 -117 -63 42 -79 87 -91 269 -13 184 -7 221 48 280 67
71 156 86 243 40z m2194 17 c54 -15 120 -82 135 -137 17 -67 -4 -343 -32 -400
-57 -118 -231 -135 -311 -30 -34 44 -44 94 -52 268 l-7 145 29 55 c23 44 39
59 82 82 58 30 94 34 156 17z m-2189 -827 c27 -51 76 -78 193 -107 147 -37
143 -34 114 -93 -13 -27 -28 -71 -32 -98 -6 -40 -8 -45 -15 -26 -4 12 -24 33
-44 47 l-37 25 -377 0 c-268 0 -378 3 -378 11 0 22 32 78 53 92 12 8 56 22 97
32 151 36 215 72 234 133 5 15 18 18 90 18 l84 0 18 -34z m2214 24 c0 -22 56
-80 94 -97 23 -9 82 -28 131 -40 50 -12 100 -29 112 -36 21 -14 53 -70 53 -92
0 -8 -109 -11 -375 -11 -413 0 -417 -1 -454 -61 l-18 -30 -5 46 c-3 25 -17 68
-30 95 -31 61 -35 58 113 95 117 29 166 56 193 107 l18 34 84 0 c47 0 84 -4
84 -10z m-1067 -58 c35 -63 85 -90 235 -128 138 -34 162 -46 194 -98 18 -30
23 -54 26 -149 l5 -113 -87 0 -86 0 0 66 c0 77 -9 97 -49 113 -24 10 -34 10
-59 -3 -37 -19 -42 -32 -42 -112 l0 -64 -270 0 -270 0 0 64 c0 80 -5 93 -42
112 -25 13 -35 13 -59 3 -40 -16 -49 -36 -49 -113 l0 -66 -85 0 -85 0 0 93 c0
115 12 158 54 201 29 29 51 37 165 66 153 38 206 67 240 131 l23 44 108 0 107
0 26 -47z m1157 -586 c0 -11 9 -27 21 -38 18 -17 44 -20 198 -25 198 -8 271
-24 394 -86 107 -53 174 -102 253 -184 114 -119 182 -239 225 -400 31 -116 31
-317 0 -434 -49 -183 -164 -362 -307 -476 -139 -110 -291 -172 -468 -190 -56
-6 -111 -15 -124 -20 -31 -12 -46 -55 -32 -90 18 -44 48 -53 146 -45 303 25
595 188 765 430 l49 69 0 -685 c0 -396 -4 -707 -10 -736 -30 -158 -152 -274
-318 -303 -74 -13 -161 -1 -231 33 -97 46 -127 90 -450 652 -174 301 -321 547
-343 569 -36 38 -37 42 -28 76 14 53 12 158 -5 224 -21 83 -60 153 -117 213
-100 106 -211 154 -352 154 -239 0 -427 -151 -482 -387 -9 -38 -14 -89 -11
-115 l4 -48 -68 0 -68 0 6 34 c9 54 -16 169 -53 246 -81 170 -245 270 -441
270 -223 0 -411 -148 -468 -367 -17 -65 -20 -172 -5 -222 8 -31 6 -37 -31 -80
-23 -26 -176 -281 -341 -567 -165 -285 -311 -534 -325 -552 -118 -156 -365
-182 -535 -57 -27 19 -63 59 -83 88 -65 99 -65 94 -65 866 l0 694 49 -69 c167
-238 459 -403 758 -429 101 -9 128 -3 148 35 21 40 19 57 -8 84 -20 19 -38 25
-113 31 -127 10 -224 37 -339 95 -180 89 -309 218 -396 395 -27 55 -58 136
-70 180 -110 434 121 880 542 1048 133 52 190 58 588 55 l364 -3 58 -227 c34
-137 66 -239 78 -257 34 -47 85 -61 226 -61 114 0 126 2 149 23 36 32 39 74 6
107 -18 18 -33 20 -140 20 l-119 0 -10 38 c-6 20 -26 102 -46 182 -20 80 -38
153 -41 163 -5 16 34 17 726 17 692 0 731 -1 726 -17 -3 -10 -21 -83 -41 -163
-20 -80 -40 -162 -46 -182 l-10 -38 -364 0 c-352 0 -366 -1 -385 -20 -33 -33
-30 -75 6 -107 25 -23 26 -23 394 -23 408 0 429 3 471 61 12 18 44 120 78 257
l58 227 75 5 c79 5 111 21 123 61 6 17 17 19 106 19 90 0 99 -2 99 -18z"/>
<path d="M789 3161 l-29 -29 0 -178 0 -178 123 -123 c163 -163 150 -163 314
-1 l123 122 0 177 c0 98 -3 185 -6 194 -15 39 -54 45 -279 45 l-217 0 -29 -29z"/>
<path d="M3987 3173 c-67 -23 -139 -90 -167 -155 -31 -73 -25 -185 13 -251 94
-159 313 -191 440 -63 62 62 82 110 82 201 0 70 -4 87 -30 133 -50 91 -126
140 -228 147 -42 4 -77 0 -110 -12z"/>
<path d="M340 2703 c-8 -3 -25 -15 -37 -26 -23 -20 -23 -25 -23 -254 l0 -234
25 -24 c24 -25 26 -25 201 -25 l177 0 123 121 c67 67 125 132 128 145 4 13 0
36 -8 52 -21 40 -216 229 -249 241 -29 11 -309 14 -337 4z"/>
<path d="M1395 2696 c-16 -7 -78 -63 -137 -124 -148 -152 -149 -146 15 -309
l123 -123 176 0 c173 0 178 1 205 24 l28 24 3 218 c4 244 -1 268 -54 290 -45
19 -316 19 -359 0z"/>
<path d="M3543 2699 c-88 -17 -160 -72 -204 -159 -31 -60 -32 -165 -2 -230 43
-96 155 -170 258 -170 103 0 215 73 258 168 27 58 28 168 3 225 -51 117 -189
190 -313 166z m117 -164 c59 -30 82 -131 42 -184 -49 -68 -140 -75 -199 -15
-28 27 -33 39 -33 81 1 26 6 58 14 71 31 56 115 79 176 47z"/>
<path d="M4513 2699 c-60 -11 -105 -35 -148 -77 -51 -51 -77 -106 -83 -178
-20 -250 275 -398 463 -232 126 111 129 312 7 419 -66 59 -154 83 -239 68z
m107 -164 c30 -16 30 -16 30 -110 0 -86 -2 -95 -22 -109 -36 -26 -111 -21
-147 10 -114 95 8 277 139 209z"/>
<path d="M1993 2624 c-51 -25 -63 -64 -63 -206 0 -136 14 -179 66 -198 14 -6
112 -10 219 -10 107 0 205 4 219 10 52 19 66 62 66 198 0 214 -10 222 -287
222 -150 0 -194 -4 -220 -16z"/>
<path d="M2683 2624 c-51 -25 -63 -64 -63 -206 0 -136 14 -179 66 -198 14 -6
112 -10 219 -10 107 0 205 4 219 10 52 19 66 62 66 198 0 214 -10 222 -287
222 -150 0 -194 -4 -220 -16z"/>
<path d="M995 2302 c-16 -11 -76 -67 -132 -125 l-103 -106 0 -181 c0 -179 0
-181 25 -205 l24 -25 231 0 231 0 24 25 c25 24 25 26 25 206 l0 182 -117 119
c-130 130 -155 143 -208 110z"/>
<path d="M3965 2197 c-223 -106 -221 -412 4 -515 45 -21 64 -24 125 -20 87 6
139 31 194 93 120 137 85 338 -75 432 -67 39 -178 44 -248 10z m174 -145 c38
-20 71 -73 71 -112 0 -64 -67 -130 -133 -130 -97 0 -158 113 -107 198 35 58
108 77 169 44z"/>
</g>
</svg>
